<?xml version="1.0" encoding="utf-8"?>
<!-- Generator: Adobe Illustrator 27.3.1, SVG Export Plug-In . SVG Version: 6.00 Build 0)  -->
<svg version="1.1" id="Layer_1" xmlns="http://www.w3.org/2000/svg" xmlns:xlink="http://www.w3.org/1999/xlink" x="0px" y="0px"
	 viewBox="0 0 607.3 592.6" style="enable-background:new 0 0 607.3 592.6;" xml:space="preserve">
<style type="text/css">
	.st0{fill:#F97316;}
</style>
<g>
	<path class="st0" d="M127.4,237.5c4.5-1.9,8.9-2.4,13.3-3.4c35.4-8.1,67.4-23,94.3-47.7c12.8-11.8,23.2-25.7,31.8-40.8
		c14.4-25.3,23.1-52.7,28.2-81.2c3.5-19.2,6.1-38.5,6.8-58c0.1-2.1,0.2-4.3,2.4-6.3c0.5,5.1,1.1,10.1,1.6,15.2
		c2.9,30.7,7.6,61.1,17.6,90.4c8.1,23.8,18.9,46.3,35.4,65.6c14.5,17,31.2,31.2,50.7,42.3c21.1,12,43.8,19.2,67.7,23.2
		c1.3,0.2,3.3,0.2,3.4,1.6c0,2.3-2.4,1.9-3.9,2.1c-18.1,3.1-35.9,7.3-53,14.2c-28.8,11.6-53.3,29-73,53.3
		c-10.5,13-18.9,27-25.4,42.2c-1.4,3.3-3.5,5.4-6.9,6.6c-7.8,2.9-15.5,6-23.2,9.3c-3.5,1.5-4.4-0.2-5.2-2.9
		c-3.7-12.2-9.4-23.5-15.7-34.5c-12.9-22.8-30.7-40.9-52.1-55.7c-27.4-18.9-58-28.6-90.6-33.3C130.3,239.5,128.6,239.8,127.4,237.5
		L127.4,237.5z"/>
	<path class="st0" d="M497.6,129.9c9.7-1.9,19.5-2.6,29.2-2.1c15.3,0.8,30.6,2.4,44.9,8.7c15.4,6.8,28.1,16.4,33.3,33
		c4.5,14.6,2,29.1-3.6,43c-8.5,20.8-22,38.4-37.3,54.5c-30.1,31.6-64.6,57.5-101.5,80.6c-23.5,14.7-47.5,28.3-72.3,40.5
		c-52,25.6-105.9,46.4-162.3,60.3c-32.5,8-65.5,13.6-99.2,14.8c-23.2,0.8-46.3,1-69.1-4.2c-15.4-3.5-30.1-8.5-42.1-19.5
		C1.2,424.2-3.5,406.2,2.4,384.9c4.9-17.8,14.9-32.7,26.4-46.6c15-18.1,32.4-33.5,51.5-47c1.6-1.1,3-2.6,6.1-3
		c-2.9,3.2-5.2,5.9-7.6,8.5c-13.4,14.3-25.5,29.4-33.4,47.6c-4.6,10.6-6.9,21.7-5.2,33.2c2.4,16.1,12.8,26.3,27,33
		c14.2,6.6,29.4,8.5,44.8,9c25,0.8,49.8-1.9,74.5-6.3c45.7-8.3,89.3-23,132.1-40.5c45.3-18.5,88.6-40.9,129.8-67.4
		c29.6-19.1,57.8-40,82.5-65.3c12.6-12.9,24-26.8,30.7-43.9c7.2-18.5,4.3-34.9-8.4-46.4c-6.8-6.1-14.7-10.2-23.4-13
		C519.3,133.3,508.3,132.2,497.6,129.9L497.6,129.9z"/>
</g>
<path class="st0" d="M295.7,445.4l14,145.7c0.2,2,3.1,2,3.2,0l12.5-156.6c0.1-1.2-1.1-2.1-2.2-1.7l-26.4,11
	C296,444,295.6,444.7,295.7,445.4L295.7,445.4z"/>
</svg>
